<svg width="48" height="48" viewBox="0 0 48 48" fill="none" xmlns="http://www.w3.org/2000/svg">
<circle cx="24" cy="24" r="24" fill="url(#paint0_linear_18062_81678)"/>
<mask id="mask0_18062_81678" style="mask-type:alpha" maskUnits="userSpaceOnUse" x="0" y="0" width="48" height="48">
<circle cx="24" cy="24" r="24" fill="url(#paint1_linear_18062_81678)"/>
</mask>
<g mask="url(#mask0_18062_81678)">
<g filter="url(#filter0_f_18062_81678)">
<circle cx="24" cy="54" r="24" fill="#99DBD4"/>
</g>
<path opacity="0.8" d="M25.1998 11.3608L25.1598 11.4541L21.2931 20.4274H17.4931C16.5864 20.4274 15.7331 20.6008 14.9331 20.9474L17.2664 15.3741L17.3198 15.2541L17.3998 15.0408C17.4398 14.9474 17.4664 14.8674 17.5064 14.8008C19.2531 10.7608 21.2264 9.84077 25.1998 11.3608Z" fill="#00A693"/>
<path d="M32.3868 20.6927C31.7868 20.5194 31.1601 20.426 30.5068 20.426H21.2935L25.1601 11.4527L25.2001 11.3594C25.3868 11.426 25.5868 11.5194 25.7868 11.586L28.7335 12.826C30.3735 13.506 31.5201 14.2127 32.2268 15.066C32.3468 15.226 32.4535 15.3727 32.5601 15.546C32.6801 15.7327 32.7735 15.9194 32.8268 16.1194C32.8801 16.2394 32.9201 16.346 32.9468 16.466C33.2935 17.5994 33.0801 18.9727 32.3868 20.6927Z" fill="#00A693"/>
<path opacity="0.4" d="M37.0135 26.9324V29.5324C37.0135 29.7991 37.0002 30.0658 36.9868 30.3191C36.7335 34.9858 34.1335 37.3324 29.2002 37.3324H18.8002C18.4668 37.3324 18.1601 37.3058 17.8535 37.2658C13.6135 36.9858 11.3468 34.7191 11.0535 30.4791C11.0135 30.1591 10.9868 29.8524 10.9868 29.5324V26.9324C10.9868 24.2524 12.6135 21.9458 14.9335 20.9458C15.7335 20.5991 16.5868 20.4258 17.4935 20.4258H30.5068C31.1601 20.4258 31.7868 20.5191 32.3868 20.6924C35.0535 21.5058 37.0135 23.9858 37.0135 26.9324Z" fill="#00A693"/>
<path opacity="0.6" d="M17.2668 15.373L14.9335 20.9464C12.6135 21.9464 10.9868 24.253 10.9868 26.933V23.0264C10.9868 19.2397 13.6801 16.0797 17.2668 15.373Z" fill="#00A693"/>
<path opacity="0.6" d="M37.0134 23.0258V26.9325C37.0134 23.9858 35.0534 21.5058 32.3867 20.6925C33.0801 18.9725 33.2934 17.5991 32.9467 16.4658C32.92 16.3458 32.8801 16.2391 32.8267 16.1191C35.3201 17.4125 37.0134 20.0391 37.0134 23.0258Z" fill="#00A693"/>
<path d="M27.3332 30.334H20.6665C20.1198 30.334 19.6665 29.8807 19.6665 29.334C19.6665 28.7873 20.1198 28.334 20.6665 28.334H27.3332C27.8798 28.334 28.3332 28.7873 28.3332 29.334C28.3332 29.8807 27.8798 30.334 27.3332 30.334Z" fill="#00A693"/>
</g>
<defs>
<filter id="filter0_f_18062_81678" x="-9.4" y="20.6" width="66.8" height="66.8" filterUnits="userSpaceOnUse" color-interpolation-filters="sRGB">
<feFlood flood-opacity="0" result="BackgroundImageFix"/>
<feBlend mode="normal" in="SourceGraphic" in2="BackgroundImageFix" result="shape"/>
<feGaussianBlur stdDeviation="4.7" result="effect1_foregroundBlur_18062_81678"/>
</filter>
<linearGradient id="paint0_linear_18062_81678" x1="24" y1="-11.5" x2="24" y2="57" gradientUnits="userSpaceOnUse">
<stop stop-color="#CCEDE9"/>
<stop offset="1" stop-color="white"/>
</linearGradient>
<linearGradient id="paint1_linear_18062_81678" x1="23.3846" y1="-14.7692" x2="23.3846" y2="57.8462" gradientUnits="userSpaceOnUse">
<stop stop-color="#B3E4DF"/>
<stop offset="1" stop-color="#E6F6F4"/>
</linearGradient>
</defs>
</svg>
