<svg width="32" height="32" viewBox="0 0 32 32" fill="none" xmlns="http://www.w3.org/2000/svg">
<circle cx="16" cy="16" r="16" fill="white"/>
<mask id="mask0_15842_73041" style="mask-type:alpha" maskUnits="userSpaceOnUse" x="4" y="4" width="24" height="24">
<rect x="4" y="4" width="24" height="24" fill="#D9D9D9"/>
</mask>
<g mask="url(#mask0_15842_73041)">
<path d="M10.5 24.0001C8.98333 24.0001 7.6875 23.4751 6.6125 22.4251C5.5375 21.3751 5 20.0918 5 18.5751C5 17.2751 5.39167 16.1168 6.175 15.1001C6.95833 14.0834 7.98333 13.4334 9.25 13.1501C9.53333 11.9501 10.2417 10.8084 11.375 9.7251C12.5083 8.64176 13.7167 8.1001 15 8.1001C15.55 8.1001 16.0208 8.29593 16.4125 8.6876C16.8042 9.07926 17 9.5501 17 10.1001V16.1501L18.6 14.6001L20 16.0001L16 20.0001L12 16.0001L13.4 14.6001L15 16.1501V10.1001C13.7333 10.3334 12.75 10.9459 12.05 11.9376C11.35 12.9293 11 13.9501 11 15.0001H10.5C9.53333 15.0001 8.70833 15.3418 8.025 16.0251C7.34167 16.7084 7 17.5334 7 18.5001C7 19.4668 7.34167 20.2918 8.025 20.9751C8.70833 21.6584 9.53333 22.0001 10.5 22.0001H22.5C23.2 22.0001 23.7917 21.7584 24.275 21.2751C24.7583 20.7918 25 20.2001 25 19.5001C25 18.8001 24.7583 18.2084 24.275 17.7251C23.7917 17.2418 23.2 17.0001 22.5 17.0001H21V15.0001C21 14.2001 20.8167 13.4543 20.45 12.7626C20.0833 12.0709 19.6 11.4834 19 11.0001V8.6751C20.2333 9.25843 21.2083 10.1209 21.925 11.2626C22.6417 12.4043 23 13.6501 23 15.0001C24.15 15.1334 25.1042 15.6293 25.8625 16.4876C26.6208 17.3459 27 18.3501 27 19.5001C27 20.7501 26.5625 21.8126 25.6875 22.6876C24.8125 23.5626 23.75 24.0001 22.5 24.0001H10.5Z" fill="#00A693"/>
</g>
</svg>
