<svg width="41" height="40" viewBox="0 0 41 40" fill="none" xmlns="http://www.w3.org/2000/svg">
<mask id="mask0_17176_77655" style="mask-type:alpha" maskUnits="userSpaceOnUse" x="0" y="0" width="41" height="40">
<circle cx="20.5" cy="20" r="20" fill="url(#paint0_linear_17176_77655)"/>
</mask>
<g mask="url(#mask0_17176_77655)">
<g filter="url(#filter0_f_17176_77655)">
<circle cx="20.5" cy="45" r="20" fill="#FAD7A3"/>
</g>
<path opacity="0.4" d="M27.1662 29.4439H26.0551V29.1661C26.0551 27.9439 25.0551 26.9439 23.8328 26.9439H21.3328V24.3994C21.0551 24.4327 20.7773 24.4439 20.4995 24.4439C20.2217 24.4439 19.944 24.4327 19.6662 24.3994V26.9439H17.1662C15.944 26.9439 14.944 27.9439 14.944 29.1661V29.4439H13.8328C13.3773 29.4439 12.9995 29.8216 12.9995 30.2772C12.9995 30.7327 13.3773 31.1105 13.8328 31.1105H27.1662C27.6217 31.1105 27.9995 30.7327 27.9995 30.2772C27.9995 29.8216 27.6217 29.4439 27.1662 29.4439Z" fill="#F29B18"/>
<path opacity="0.4" d="M13.2997 19.5998C12.5664 19.322 11.9219 18.8665 11.4108 18.3553C10.3775 17.2109 9.69971 15.8442 9.69971 14.2442C9.69971 12.6442 10.9553 11.3887 12.5553 11.3887H13.1775C12.8886 11.9776 12.7219 12.6331 12.7219 13.3331V16.6665C12.7219 17.7109 12.9219 18.6998 13.2997 19.5998Z" fill="#F29B18"/>
<path opacity="0.4" d="M31.2997 14.2442C31.2997 15.8442 30.6219 17.2109 29.5886 18.3553C29.0775 18.8665 28.433 19.322 27.6997 19.5998C28.0775 18.6998 28.2775 17.7109 28.2775 16.6665V13.3331C28.2775 12.6331 28.1108 11.9776 27.8219 11.3887H28.4442C30.0442 11.3887 31.2997 12.6442 31.2997 14.2442Z" fill="#F29B18"/>
<path d="M23.833 8.88867H17.1664C14.7108 8.88867 12.7219 10.8776 12.7219 13.3331V16.6665C12.7219 20.9664 16.1997 24.4442 20.4997 24.4442C24.7997 24.4442 28.2775 20.9664 28.2775 16.6665V13.3331C28.2775 10.8776 26.2886 8.88867 23.833 8.88867ZM23.6553 16.0553L22.9664 16.8998C22.8553 17.022 22.7775 17.2664 22.7886 17.4331L22.8553 18.522C22.8997 19.1887 22.4219 19.5331 21.7997 19.2887L20.7886 18.8887C20.633 18.8331 20.3664 18.8331 20.2108 18.8887L19.1997 19.2887C18.5775 19.5331 18.0997 19.1887 18.1441 18.522L18.2108 17.4331C18.2219 17.2664 18.1441 17.022 18.033 16.8998L17.3441 16.0553C16.9108 15.5442 17.0997 14.9776 17.7441 14.8109L18.7997 14.5442C18.9664 14.4998 19.1664 14.3442 19.2553 14.1998L19.8441 13.2887C20.2108 12.722 20.7886 12.722 21.1553 13.2887L21.7441 14.1998C21.833 14.3442 22.033 14.4998 22.1997 14.5442L23.2553 14.8109C23.8997 14.9776 24.0886 15.5442 23.6553 16.0553Z" fill="#F29B18"/>
<path opacity="0.4" d="M23.6551 16.0549L22.9663 16.8994C22.8551 17.0216 22.7774 17.2661 22.7885 17.4327L22.8551 18.5216C22.8996 19.1883 22.4218 19.5327 21.7996 19.2883L20.7885 18.8883C20.6329 18.8327 20.3662 18.8327 20.2107 18.8883L19.1996 19.2883C18.5774 19.5327 18.0996 19.1883 18.144 18.5216L18.2107 17.4327C18.2218 17.2661 18.144 17.0216 18.0329 16.8994L17.344 16.0549C16.9107 15.5438 17.0996 14.9772 17.744 14.8105L18.7996 14.5438C18.9663 14.4994 19.1662 14.3438 19.2551 14.1994L19.844 13.2883C20.2107 12.7216 20.7885 12.7216 21.1551 13.2883L21.744 14.1994C21.8329 14.3438 22.0329 14.4994 22.1996 14.5438L23.2551 14.8105C23.8996 14.9772 24.0885 15.5438 23.6551 16.0549Z" fill="#F29B18"/>
</g>
<defs>
<filter id="filter0_f_17176_77655" x="-8.9" y="15.6" width="58.8" height="58.8" filterUnits="userSpaceOnUse" color-interpolation-filters="sRGB">
<feFlood flood-opacity="0" result="BackgroundImageFix"/>
<feBlend mode="normal" in="SourceGraphic" in2="BackgroundImageFix" result="shape"/>
<feGaussianBlur stdDeviation="4.7" result="effect1_foregroundBlur_17176_77655"/>
</filter>
<linearGradient id="paint0_linear_17176_77655" x1="19.9872" y1="-12.3077" x2="19.9872" y2="48.2051" gradientUnits="userSpaceOnUse">
<stop stop-color="#B3E4DF"/>
<stop offset="1" stop-color="#E6F6F4"/>
</linearGradient>
</defs>
</svg>
