<svg width="32" height="32" viewBox="0 0 32 32" fill="none" xmlns="http://www.w3.org/2000/svg">
<circle cx="16" cy="16" r="16" fill="white"/>
<path d="M16 30C23.732 30 30 23.732 30 16C30 8.26801 23.732 2 16 2C8.26801 2 2 8.26801 2 16C2 23.732 8.26801 30 16 30Z" fill="#0091EA"/>
<path d="M24.5876 14.3435C24.4704 11.6916 22.2912 9.58765 19.6141 9.58765C18.1292 9.58765 16.7907 10.2444 15.8789 11.2733C14.967 10.2444 13.6285 9.58765 12.1436 9.58765C9.52093 9.58765 7.37094 11.608 7.17853 14.1971C7.17017 14.2515 7.17017 14.3226 7.17017 14.3896V20.0071C7.17017 20.6973 7.72649 21.2536 8.41666 21.2536H8.44594C9.13611 21.2536 9.69243 20.6973 9.69243 20.0071V14.5694H9.70079C9.70079 13.2016 10.8134 12.0932 12.177 12.0932C13.5448 12.0932 14.6533 13.2058 14.6533 14.5694H14.6617V19.158C14.6617 19.8482 15.218 20.4045 15.9081 20.4045H15.9374C16.6276 20.4045 17.1839 19.8482 17.1839 19.158V14.5569C17.1923 13.1891 18.2965 12.0974 19.6602 12.0974C21.0238 12.0974 22.149 13.2142 22.149 14.5778H22.1573V20.0239C22.1573 20.7057 22.7136 21.2536 23.3871 21.2536H23.4164C24.0982 21.2536 24.6461 20.6973 24.6461 20.0239V14.469C24.5876 14.4063 24.5876 14.377 24.5876 14.3435Z" fill="white"/>
<path d="M19.8816 21.739C19.8273 21.6469 19.6432 21.831 19.6432 21.831C18.953 22.5797 17.5225 23.0607 16.0376 23.0607C14.5527 23.0607 13.1305 22.5797 12.432 21.831C12.432 21.831 12.2479 21.6386 12.1936 21.739C12.1224 21.8477 12.2312 22.0234 12.2312 22.0234C13.1138 23.2992 14.4607 23.8722 16.0376 23.8722C17.6145 23.8722 18.9614 23.2992 19.844 22.0234C19.8524 22.0192 19.9527 21.8477 19.8816 21.739Z" fill="white"/>
</svg>
